<svg xmlns="http://www.w3.org/2000/svg" xmlns:xlink="http://www.w3.org/1999/xlink" viewBox="0 0 286.69 120.58"><defs><style>.cls-1{fill:url(#linear-gradient);}.cls-2{fill:url(#linear-gradient-2);}.cls-3{fill:url(#linear-gradient-3);}.cls-4{fill:url(#linear-gradient-4);}.cls-5{fill:url(#linear-gradient-5);}</style><linearGradient id="linear-gradient" y1="57.83" x2="110.93" y2="57.83" gradientUnits="userSpaceOnUse"><stop offset="0" stop-color="#abffcf"/><stop offset="0.41" stop-color="#12b8ff"/><stop offset="1" stop-color="#001aff"/></linearGradient><linearGradient id="linear-gradient-2" x1="36.41" y1="104.11" x2="110.93" y2="104.11" gradientUnits="userSpaceOnUse"><stop offset="0" stop-color="#44aacf"/><stop offset="0.41" stop-color="#070ecf"/><stop offset="1" stop-color="#4b00cf"/></linearGradient><linearGradient id="linear-gradient-3" x1="175.76" y1="62.52" x2="286.69" y2="62.52" gradientUnits="userSpaceOnUse"><stop offset="0" stop-color="#001aff"/><stop offset="0.59" stop-color="#12b8ff"/><stop offset="1" stop-color="#abffcf"/></linearGradient><linearGradient id="linear-gradient-4" x1="175.76" y1="16.48" x2="249.16" y2="16.48" gradientUnits="userSpaceOnUse"><stop offset="0" stop-color="#4b00cf"/><stop offset="0.59" stop-color="#070ecf"/><stop offset="1" stop-color="#44aacf"/></linearGradient><linearGradient id="linear-gradient-5" x1="72.36" y1="60.29" x2="218.4" y2="60.29" gradientUnits="userSpaceOnUse"><stop offset="0.03" stop-color="#ff59a7"/><stop offset="0.06" stop-color="#ff1281"/><stop offset="0.53" stop-color="#b700ff"/><stop offset="1" stop-color="#ff1281"/></linearGradient></defs><g id="katman_2" data-name="katman 2"><g id="OBJECTS"><path class="cls-1" d="M61.51,87.63A27.34,27.34,0,0,1,34.17,60.29h0A27.34,27.34,0,0,1,61.51,33H94.46A16.48,16.48,0,0,0,94.46,0H60.29A60.29,60.29,0,0,0,0,60.29H0a60.3,60.3,0,0,0,36.41,55.37c24-3.58,46.78-13.57,66.54-28Z"/><path class="cls-2" d="M36.41,115.66a60.13,60.13,0,0,0,23.88,4.92H78a33,33,0,0,0,33-32.95h-8C83.19,102.09,60.36,112.08,36.41,115.66Z"/><path class="cls-3" d="M249.16,4.46c-21.39,5-41.9,13.37-57.27,28.49h33.29a27.34,27.34,0,0,1,27.34,27.34h0a27.34,27.34,0,0,1-27.34,27.34h-33a16.48,16.48,0,0,0-16.47,16.48h0a16.48,16.48,0,0,0,16.47,16.47H226.4a60.29,60.29,0,0,0,60.29-60.29h0A60.3,60.3,0,0,0,249.16,4.46Z"/><path class="cls-4" d="M226.4,0H208.71a33,33,0,0,0-33,33h16.13c15.37-15.12,35.88-23.49,57.27-28.49A60,60,0,0,0,226.4,0Z"/><path class="cls-5" d="M218.4,0,148.49,84.7a98.71,98.71,0,0,1-76.13,35.88h0L162.11,15.8A45.22,45.22,0,0,1,196.45,0Z"/></g></g></svg>